<?xml version="1.0" standalone="no"?>
<!DOCTYPE svg PUBLIC "-//W3C//DTD SVG 20010904//EN"
 "http://www.w3.org/TR/2001/REC-SVG-20010904/DTD/svg10.dtd">
<svg version="1.0" xmlns="http://www.w3.org/2000/svg"
 width="700.000000pt" height="700.000000pt" viewBox="0 0 700.000000 700.000000"
 preserveAspectRatio="xMidYMid meet">
<metadata>
Created by potrace 1.14, written by Peter Selinger 2001-2017
</metadata>
<g transform="translate(0.000000,700.000000) scale(0.100000,-0.100000)"
fill="#000000" stroke="none">
<path d="M5930 6964 c-596 -165 -1161 -471 -1641 -889 -108 -93 -346 -327
-434 -425 -67 -74 -158 -182 -200 -235 -22 -27 -42 -52 -45 -55 -3 -3 -44 -57
-91 -120 -393 -531 -679 -1063 -963 -1790 -44 -114 -163 -481 -196 -605 -34
-128 -28 -117 -232 -425 l-63 -95 -240 0 c-268 1 -304 -3 -390 -44 -107 -50
-196 -170 -213 -287 -10 -69 4 -166 35 -230 47 -100 167 -195 266 -211 l37 -6
0 -73 0 -74 -47 0 c-71 -1 -120 -9 -203 -36 -103 -32 -190 -86 -275 -169 -254
-248 -280 -644 -60 -924 104 -133 222 -208 390 -251 77 -19 107 -20 775 -17
631 2 701 4 755 20 362 107 582 473 499 829 -74 315 -359 547 -674 548 l-45 0
0 70 0 70 63 20 c135 44 227 136 266 267 17 61 16 168 -4 228 -35 106 -130
204 -237 246 -52 19 -78 22 -260 23 -112 0 -203 3 -203 6 0 3 42 68 93 145 84
127 97 142 147 168 204 107 484 287 708 454 64 48 122 92 128 98 6 5 28 24 49
40 447 351 903 806 1331 1330 311 381 704 958 940 1380 15 28 54 97 87 155 32
58 133 254 223 435 184 370 190 388 136 437 -41 36 -57 35 -212 -8z m-103
-371 c-41 -81 -103 -200 -137 -263 -35 -63 -70 -128 -78 -145 -44 -88 -245
-426 -363 -610 -215 -336 -522 -755 -749 -1020 -23 -28 -51 -61 -63 -75 -19
-23 -108 -123 -211 -240 -96 -108 -513 -515 -636 -621 -251 -216 -523 -425
-765 -586 -123 -82 -129 -94 153 307 169 239 547 753 626 851 12 14 32 40 46
59 73 97 352 447 491 615 39 46 213 250 285 335 357 412 758 828 1135 1174 60
56 64 62 64 104 0 36 -5 48 -28 68 -33 29 -82 31 -117 7 -40 -28 -258 -233
-444 -419 -171 -171 -282 -287 -531 -558 -6 -6 -64 -72 -129 -146 -65 -74
-131 -148 -145 -165 -25 -28 -212 -250 -256 -304 -11 -14 -34 -41 -51 -60 -23
-28 -196 -243 -281 -351 -249 -315 -569 -744 -828 -1112 -60 -86 -111 -155
-113 -154 -1 2 24 72 57 157 205 536 464 1037 759 1469 147 217 252 351 457
590 43 49 321 328 380 381 414 368 846 629 1330 804 171 61 210 73 213 64 2
-4 -30 -74 -71 -156z m-3101 -4485 c53 -34 81 -70 95 -121 28 -105 -35 -217
-140 -247 -48 -13 -1108 -11 -1140 3 -114 49 -164 173 -112 280 24 49 67 85
122 101 26 8 211 11 586 11 l548 -1 41 -26z m-265 -568 c26 0 26 -1 26 -70
l-1 -70 -368 0 -368 0 0 69 0 70 33 3 c24 2 503 1 678 -2z m369 -345 c236 -63
397 -274 389 -510 -8 -229 -164 -421 -389 -480 -85 -23 -1335 -22 -1422 1
-195 50 -342 202 -381 394 -51 252 92 498 338 581 l80 28 665 0 c550 1 674 -2
720 -14z"/>
<path d="M2588 1135 c-56 -31 -65 -97 -20 -144 23 -25 37 -30 91 -36 156 -15
271 -130 291 -291 13 -100 62 -140 134 -110 46 19 58 45 55 119 -5 149 -97
304 -235 395 -94 63 -260 97 -316 67z"/>
</g>
</svg>
